<?xml version="1.0" encoding="UTF-8" standalone="no"?>
<!-- Generator: Adobe Illustrator 21.0.2, SVG Export Plug-In . SVG Version: 6.00 Build 0)  -->

<svg
   xmlns:dc="http://purl.org/dc/elements/1.1/"
   xmlns:cc="http://creativecommons.org/ns#"
   xmlns:rdf="http://www.w3.org/1999/02/22-rdf-syntax-ns#"
   xmlns:svg="http://www.w3.org/2000/svg"
   xmlns="http://www.w3.org/2000/svg"
   xmlns:sodipodi="http://sodipodi.sourceforge.net/DTD/sodipodi-0.dtd"
   xmlns:inkscape="http://www.inkscape.org/namespaces/inkscape"
   version="1.1"
   id="Capa_1"
   x="0px"
   y="0px"
   viewBox="0 0 700 700"
   xml:space="preserve"
   sodipodi:docname="universidad-de-chile-logo.svg"
   inkscape:version="0.92.4 (5da689c313, 2019-01-14)"
   width="700"
   height="700"><metadata
   id="metadata50"><rdf:RDF><cc:Work
       rdf:about=""><dc:format>image/svg+xml</dc:format><dc:type
         rdf:resource="http://purl.org/dc/dcmitype/StillImage" /><dc:title>logo-udechile</dc:title></cc:Work></rdf:RDF></metadata><defs
   id="defs48" /><sodipodi:namedview
   pagecolor="#ffffff"
   bordercolor="#666666"
   borderopacity="1"
   objecttolerance="10"
   gridtolerance="10"
   guidetolerance="10"
   inkscape:pageopacity="0"
   inkscape:pageshadow="2"
   inkscape:window-width="1600"
   inkscape:window-height="837"
   id="namedview46"
   showgrid="false"
   inkscape:zoom="0.62069294"
   inkscape:cx="123.65839"
   inkscape:cy="506.05393"
   inkscape:window-x="-8"
   inkscape:window-y="-8"
   inkscape:window-maximized="1"
   inkscape:current-layer="logo-udechile" />
<style
   type="text/css"
   id="style2">
	.st0{fill:#FFFFFF;}
	.st1{fill:#001A71;}
	.st2{fill:#EE3123;}
</style>
<title
   id="title4">logo-udechile</title>
<desc
   id="desc6">Created with Sketch.</desc>
<g
   id="Page-1_1_"
   transform="translate(0,475)">
	<g
   id="logo-udechile_1_">
		<g
   id="Page-1">
			<g
   id="logo-udechile"
   transform="translate(52.40419,107.08682)">
				
				
				
				
				
				
				
				
				
				
				
				
				
				
				
				
				
				
				
				
				
				
				<path
   id="Shape_22_"
   class="st1"
   d="m 297.8383,32.230625 c -44.61872,-22.30936 -84.87257,-52.3785 -119.0641,-88.75246 -30.79662,-33.221553 -55.04593,-71.535455 -68.62554,-117.366645 -5.57734,-19.88444 -9.21473,-40.73884 -10.669693,-61.59324 16.247033,-9.21474 52.863493,-27.88671 65.715623,-60.38078 h 23.52183 c -8.24477,-4.36487 -31.28161,-30.79662 -30.55413,-63.29069 0.72748,-41.46631 24.97679,-54.31844 24.73429,-88.50997 0,-14.30709 -3.3949,-28.12919 -9.45723,-40.98133 16.48953,7.75977 27.64421,14.79208 51.89352,14.79208 28.61418,0.24248 37.10144,-11.39718 73.23291,-11.88216 36.37396,0.72748 44.61873,11.88216 73.23291,11.88216 24.00681,0 35.16149,-6.78981 51.65102,-14.79208 -6.30482,12.85214 -9.45723,26.91672 -9.45723,40.98133 -0.48498,34.19153 24.00682,46.80117 24.7343,88.50997 0.72747,32.25158 -22.30937,58.92582 -30.55413,63.53319 H 430.967 c 13.33712,32.73656 49.46858,51.16603 65.71562,60.38077 -1.21247,20.8544 -4.84986,41.70881 -10.91219,61.59324 -13.33712,45.83119 -37.58642,83.902602 -68.62554,117.366645 -34.43401,36.13147 -74.68786,66.20061 -119.30659,88.50997"
   inkscape:connector-curvature="0"
   style="fill:#001a71;stroke-width:2.42493081" />
				<path
   id="Shape_23_"
   class="st0"
   d="m 297.8383,40.717885 -3.3949,-1.69745 C 249.09719,16.226085 207.87337,-14.328045 172.95437,-51.186985 138.76284,-87.56095 115.726,-127.08732 102.63138,-171.22106 c -6.062329,-20.61191 -9.942219,-41.70881 -11.154684,-63.29069 l -0.484986,-4.84986 4.122382,-2.42493 c 1.212466,-0.72748 2.424931,-1.21247 3.637396,-2.18244 16.489532,-9.21474 47.528642,-26.43175 58.925812,-54.31846 l 1.93995,-5.09235 h 9.94221 c -9.94221,-13.09463 -20.12692,-33.22154 -19.64193,-55.7734 0.48498,-23.27933 7.75977,-38.07141 14.06459,-51.40854 5.57734,-11.88216 10.6697,-21.82436 10.6697,-36.61644 0,-13.09463 -3.15241,-25.94676 -8.97224,-37.82892 l -8.97225,-19.64194 19.39945,9.21474 c 1.93994,0.96997 3.63739,1.69745 5.33485,2.66742 13.57961,6.54731 23.52182,11.39718 43.16376,11.39718 h 0.48499 c 10.18471,0 20.36942,-1.69746 30.06914,-5.09236 13.82211,-4.36487 28.37169,-6.54731 42.67878,-6.78981 h 0.48499 c 14.54958,0.2425 28.85667,2.42494 42.67878,6.78981 9.69972,3.15241 19.88443,4.84986 30.06914,5.09236 h 0.48498 c 19.88444,0 29.58416,-4.84987 42.92128,-11.39718 1.69745,-0.72748 3.3949,-1.69745 5.33485,-2.66742 l 19.64193,-9.45723 -9.45722,19.64194 c -5.81984,11.88216 -8.72976,24.73429 -8.97225,37.82892 -0.24249,14.79206 4.84986,24.73429 10.6697,36.61645 6.30482,13.33712 13.57961,28.12919 14.06459,51.40852 0.48499,22.79436 -9.69972,42.67879 -19.88443,55.77342 h 9.94222 l 1.93994,5.09234 c 11.15468,27.88671 42.1938,45.10372 58.92582,54.56095 1.21247,0.48498 2.42493,1.21246 3.3949,2.18244 l 4.12239,2.42493 -0.48499,5.09235 c -1.21247,21.33939 -4.84986,42.67878 -11.15468,63.29069 -13.33712,44.37623 -36.37396,83.660113 -70.32299,120.034075 -33.94903,36.37396 -78.08277,69.35302 -121.48903,90.20742 z M 107.48124,-230.87436 c 1.45496,18.67197 4.84986,37.10144 10.18471,55.04593 12.36714,41.9513 34.19152,79.295236 66.92809,114.214235 32.73656,34.67651 71.05047,63.53319 113.24426,85.60006 42.43629,-21.82438 80.75019,-50.92355 113.48676,-85.60006 32.49407,-34.676506 54.56094,-72.020435 66.92809,-113.971745 5.33484,-17.94448 8.72975,-36.37396 10.18471,-55.04592 -17.45951,-9.69973 -48.49862,-27.40172 -62.80571,-56.98588 h -18.18698 l -3.6374,-14.30708 c 6.54732,-3.3949 27.15923,-27.88671 26.67424,-56.5009 -0.48498,-19.64194 -6.54731,-32.49407 -12.60964,-44.86122 -6.06233,-12.36714 -12.12465,-25.21927 -12.12465,-43.64875 0,-8.72975 1.21246,-17.4595 3.3949,-25.94676 -11.88216,5.09236 -24.73429,7.51729 -37.82892,7.27479 h -0.48498 c -11.63967,0 -23.27934,-1.93993 -34.19153,-5.57734 -12.60964,-3.87988 -25.46177,-6.06232 -38.5564,-6.30482 -13.09462,0.2425 -26.18925,2.42494 -38.55639,6.30482 -11.15469,3.63741 -22.55186,5.57734 -34.19153,5.57734 h -0.72748 c -12.85213,0.2425 -25.94676,-2.18243 -37.82892,-7.27479 2.42493,8.48726 3.39491,17.21702 3.39491,25.94676 0.24249,18.18698 -6.06233,31.28161 -12.12466,43.64875 -6.06232,12.36715 -12.12465,25.21928 -12.60964,44.61873 -0.72748,28.85668 20.12693,53.10599 26.67424,56.50089 l 26.18925,14.54958 h -48.01363 c -14.06459,29.34167 -45.10371,47.04366 -62.8057,56.74338 z"
   inkscape:connector-curvature="0"
   style="fill:#ffffff;stroke-width:2.42493081" />
				<path
   id="Shape_24_"
   class="st1"
   d="m 297.8383,32.230625 c -44.61872,-22.30936 -84.87257,-52.3785 -119.0641,-88.75246 -30.79662,-33.221553 -55.04593,-71.535455 -68.62554,-117.366645 -5.57734,-19.88444 -9.21473,-40.73884 -10.669693,-61.59324 16.247033,-9.21474 52.863493,-27.88671 65.715623,-60.38078 h 23.52183 c -8.24477,-4.36487 -31.28161,-30.79662 -30.55413,-63.29069 0.72748,-41.46631 24.97679,-54.31844 24.73429,-88.50997 0,-14.30709 -3.3949,-28.12919 -9.45723,-40.98133 16.48953,7.75977 27.64421,14.79208 51.89352,14.79208 28.61418,0.24248 37.10144,-11.39718 73.23291,-11.88216 36.37396,0.72748 44.61873,11.88216 73.23291,11.88216 24.00681,0 35.16149,-6.78981 51.65102,-14.79208 -6.30482,12.85214 -9.45723,26.91672 -9.45723,40.98133 -0.48498,34.19153 24.00682,46.80117 24.7343,88.50997 0.72747,32.25158 -22.30937,58.92582 -30.55413,63.53319 H 430.967 c 13.33712,32.73656 49.46858,51.16603 65.71562,60.38077 -1.21247,20.8544 -4.84986,41.70881 -10.91219,61.59324 -13.33712,45.83119 -37.58642,83.902602 -68.62554,117.366645 -34.43401,36.13147 -74.68786,66.20061 -119.30659,88.50997"
   inkscape:connector-curvature="0"
   style="fill:#001a71;stroke-width:2.42493081" />
				<path
   id="Shape_25_"
   class="st0"
   d="m 297.8383,21.075945 c -55.04593,-29.58415 -108.87939,-71.77795 -144.76836,-126.581385 -23.76433,-36.37396 -39.52637,-77.59778 -42.67878,-123.91396 15.03457,-8.72975 47.04365,-25.21928 61.10825,-56.50089 h 19.15695 l 7.51729,-6.54731 v -8.24476 c -8.24477,-4.60736 -30.31164,-28.85667 -30.06914,-59.65329 0.96997,-33.46405 24.97678,-50.43856 24.97678,-86.32754 0,-7.75977 -0.72748,-15.27706 -2.18243,-22.79434 11.39717,4.12238 23.52182,6.30482 35.88897,6.06232 25.70427,0 46.31618,-11.88216 71.77795,-11.88216 25.46177,0 46.31618,11.88216 71.77795,11.88216 12.12465,0.2425 24.24931,-1.93994 35.88897,-6.06232 -1.69745,7.51728 -2.42493,15.27706 -2.18243,23.03684 0,36.13147 24.00681,52.86349 24.73429,86.08504 0.72748,30.79662 -21.82438,55.04593 -30.06914,59.65329 v 8.24476 l 7.75978,6.54731 h 19.15695 c 13.8221,31.28161 46.31618,47.77114 61.10825,56.50089 -3.15241,44.37623 -17.70199,87.05501 -42.43628,123.91396 -37.58643,54.560945 -91.41989,97.239725 -146.46582,126.581385"
   inkscape:connector-curvature="0"
   style="fill:#ffffff;stroke-width:2.42493081" />
				<path
   id="Shape_26_"
   class="st1"
   d="m 297.8383,4.586415 c -49.71108,-25.94676 -100.63462,-67.65556 -134.34116,-120.034065 -21.33939,-32.00909 -34.43402,-68.86804 -38.5564,-106.93945 9.21474,-5.09235 34.43402,-17.70199 52.3785,-46.07368 l 120.76155,27.64421 120.51906,-27.88671 c 17.702,28.1292 43.40626,40.73884 52.3785,46.07369 -9.69972,102.81706 -93.11734,185.749695 -173.14005,227.216005"
   inkscape:connector-curvature="0"
   style="fill:#001a71;stroke-width:2.42493081" />
				<path
   id="Shape_27_"
   class="st0"
   d="M 264.61675,-44.639675 219.75553,-88.288429 V -192.07546 h -17.70199 v -34.67651 h 84.14509 v 34.67651 H 269.9516 v 88.26747 c 0,12.609644 7.51728,19.884435 20.61191,19.641945 h 15.51956 c 13.09462,0.24249 20.61191,-7.274794 20.61191,-19.641945 v -88.26747 h -16.24704 v -34.91901 h 84.38759 v 34.67651 h -17.70199 v 104.029531 l -44.86122,43.648754 z"
   inkscape:connector-curvature="0"
   style="fill:#ffffff;stroke-width:2.42493081" />
				<path
   id="Shape_28_"
   class="st2"
   d="m 297.8383,-412.25918 c -30.31163,-21.58187 -53.83346,-28.61417 -74.93036,-31.52409 16.73202,-11.63968 48.25612,-23.76432 74.93036,-22.55185 26.91673,-1.21247 58.19834,10.91217 74.93036,22.55185 -20.8544,2.66743 -44.37623,9.94222 -74.93036,31.52409"
   inkscape:connector-curvature="0"
   style="fill:#ee3123;stroke-width:2.42493081" />
				<path
   id="Shape_29_"
   class="st2"
   d="m 297.8383,-269.91574 -49.46859,-11.39717 c 8.24477,-5.33485 24.24931,-27.40172 23.27934,-50.43857 -11.88216,8.48726 -25.94676,13.09464 -40.49634,13.57961 -23.52183,0.24251 -45.34621,-12.85213 -45.34621,-43.64874 0,-27.15922 22.06687,-34.19152 21.82438,-57.47086 0,-4.36487 -0.72748,-8.72975 -2.18244,-13.09462 43.40626,-0.96998 72.26294,20.36941 92.87485,42.67878 20.61191,-22.30937 49.71108,-43.89125 92.87484,-42.67878 -1.45495,4.12237 -2.18243,8.48724 -2.18243,13.09462 -0.72748,23.52182 21.82437,30.31164 21.82437,57.47085 0,30.79662 -21.82437,43.64875 -45.5887,43.64875 -14.54958,-0.24248 -28.61418,-4.84986 -40.49634,-13.33712 -1.21246,23.03685 15.03457,45.10373 23.27934,50.43857 z"
   inkscape:connector-curvature="0"
   style="fill:#ee3123;stroke-width:2.42493081" />
				<path
   id="Shape_30_"
   class="st0"
   d="m 241.8224,-396.73962 c 15.51956,0.48499 27.64421,13.33712 27.40172,28.85668 -0.24249,15.51956 -13.09463,27.8867 -28.61418,27.6442 -15.51956,-0.24248 -27.88671,-12.85212 -27.88671,-28.37169 0,-7.51727 3.15241,-14.79207 8.72975,-20.12691 5.33485,-5.09236 12.60964,-8.00228 20.36942,-8.00228"
   inkscape:connector-curvature="0"
   style="fill:#ffffff;stroke-width:2.42493081" />
				<path
   id="Shape_31_"
   class="st0"
   d="m 354.33919,-396.73962 c -15.51956,0.48499 -27.64421,13.33712 -27.40172,28.85668 0.24249,15.51956 13.09463,27.8867 28.61418,27.6442 15.51956,-0.24248 27.88671,-12.85212 27.88671,-28.37169 0,-7.51727 -3.15241,-14.79207 -8.72976,-20.12691 -5.33484,-5.09236 -12.60964,-8.00228 -20.36941,-8.00228"
   inkscape:connector-curvature="0"
   style="fill:#ffffff;stroke-width:2.42493081" />
				<polygon
   id="Shape_32_"
   class="st2"
   points="125.3,90.3 85.2,99.4 45.3,90.3 42.7,92.8 39.1,92.8 37.6,95 85.2,105.8 133,94.9 131.5,92.8 127.8,92.8 "
   style="fill:#ee3123"
   transform="matrix(2.4249307,0,0,2.4249307,91.234203,-504.64904)" />
			</g>
		</g>
	</g>
</g>
</svg>